<?xml version="1.0" standalone="no"?>
<!DOCTYPE svg PUBLIC "-//W3C//DTD SVG 20010904//EN"
 "http://www.w3.org/TR/2001/REC-SVG-20010904/DTD/svg10.dtd">
<svg version="1.0" xmlns="http://www.w3.org/2000/svg"
 width="212.000000pt" height="211.000000pt" viewBox="0 0 212.000000 211.000000"
 preserveAspectRatio="xMidYMid meet">

<g transform="translate(0.000000,211.000000) scale(0.100000,-0.100000)"
fill="#000000" stroke="none">
<path d="M225 1933 c-69 -16 -125 -36 -125 -44 0 -5 110 -9 268 -9 303 0 352
-7 436 -63 29 -19 94 -75 145 -122 50 -48 91 -83 91 -77 0 17 -149 171 -199
205 -100 70 -174 86 -377 87 -88 0 -130 4 -150 15 -29 15 -51 17 -89 8z"/>
<path d="M1213 1914 c-36 -18 -73 -92 -73 -148 0 -53 34 -135 96 -226 l55 -83
-50 42 c-105 88 -214 233 -225 300 -3 24 -18 54 -34 72 -23 26 -37 32 -83 36
l-54 5 71 -73 c39 -41 102 -114 139 -164 38 -49 99 -121 135 -158 70 -74 177
-160 190 -152 4 2 2 28 -3 57 -9 43 -12 48 -17 29 -5 -23 -8 -22 -52 30 -69
81 -127 176 -144 238 -20 68 -8 117 38 156 44 38 110 31 150 -14 33 -37 35
-69 7 -105 -22 -28 -39 -34 -39 -13 0 21 -36 49 -57 45 -28 -5 -29 -53 -1 -72
28 -20 57 -20 86 0 12 8 22 13 22 11 0 -2 18 13 39 34 82 77 195 52 234 -51 4
-11 6 -11 6 4 1 13 6 16 19 11 9 -4 29 -11 44 -17 18 -6 29 -19 33 -39 4 -16
11 -31 16 -34 22 -14 5 -22 -43 -19 l-53 3 48 -9 c94 -17 132 -61 125 -145 -5
-58 -21 -84 -73 -116 -16 -11 -25 -19 -18 -19 8 0 8 -7 1 -28 -15 -39 -3 -80
27 -94 19 -8 28 -8 40 2 22 18 19 28 -16 61 -31 29 -31 30 -14 49 42 46 138 5
151 -65 8 -43 -17 -95 -55 -118 -77 -45 -200 0 -358 131 -29 24 -53 47 -53 52
0 5 17 7 38 5 20 -3 6 2 -31 11 -38 8 -71 13 -74 10 -3 -3 5 -23 19 -43 49
-75 171 -193 291 -284 67 -51 145 -117 173 -146 28 -29 54 -53 58 -53 14 0 5
67 -14 97 -24 40 -53 59 -105 68 -21 4 -53 16 -70 28 -72 49 -167 132 -212
185 -49 57 -45 60 17 11 182 -141 400 -126 400 28 0 38 -5 50 -34 79 -28 28
-42 34 -76 34 l-42 0 26 30 c31 38 42 92 29 142 -10 37 -9 38 16 38 39 0 69
26 81 69 14 54 -3 100 -40 108 l-28 5 28 45 c30 48 48 119 33 134 -14 14 -110
-15 -140 -42 -17 -16 -27 -20 -30 -12 -13 37 -46 63 -79 63 -65 0 -104 -32
-104 -84 0 -22 -3 -23 -67 -19 -61 4 -72 2 -105 -21 l-38 -25 0 27 c0 39 -21
73 -59 99 -40 27 -73 29 -118 7z m515 -10 c12 -8 22 -26 22 -39 0 -29 -16 -41
-24 -19 -4 9 -15 14 -28 12 -17 -2 -23 -10 -23 -28 0 -23 4 -25 38 -23 l37 2
-6 -42 c-4 -23 -8 -44 -10 -46 -8 -9 -66 24 -84 47 -23 28 -27 99 -7 124 23
30 54 34 85 12z m199 -40 c-9 -55 -55 -114 -105 -136 -52 -23 -72 -18 -72 18
0 55 51 111 128 139 53 20 55 19 49 -21z m-81 -186 c-1 -32 3 -43 16 -46 25
-5 42 33 23 52 -21 21 -19 26 13 26 37 0 52 -17 52 -56 0 -84 -133 -86 -176
-3 -20 40 -19 44 29 56 23 5 42 11 43 12 0 0 0 -18 0 -41z"/>
<path d="M1389 1661 c-16 -16 -29 -34 -29 -40 0 -5 11 1 25 14 27 28 71 33 99
12 23 -17 17 -53 -8 -49 -26 5 -49 -17 -35 -34 15 -19 25 -18 49 6 42 42 12
120 -46 120 -15 0 -38 -12 -55 -29z"/>
<path d="M1651 1674 c0 -11 3 -14 6 -6 3 7 2 16 -1 19 -3 4 -6 -2 -5 -13z"/>
<path d="M1365 1575 c10 -49 46 -77 104 -83 48 -4 51 -6 51 -34 0 -40 24 -92
51 -112 34 -24 57 -20 26 5 -29 22 -50 84 -45 132 l3 32 -60 5 c-70 6 -99 20
-120 58 l-16 27 6 -30z"/>
<path d="M1351 1504 c0 -11 3 -14 6 -6 3 7 2 16 -1 19 -3 4 -6 -2 -5 -13z"/>
<path d="M1623 1468 c-26 -13 -40 -45 -24 -61 15 -15 43 11 36 33 -7 23 18 32
41 15 25 -17 24 -78 -1 -106 -19 -21 -19 -22 -2 -16 10 4 20 7 23 7 2 0 10 13
19 30 19 36 11 75 -18 95 -25 17 -43 18 -74 3z"/>
<path d="M1578 1313 c6 -2 18 -2 25 0 6 3 1 5 -13 5 -14 0 -19 -2 -12 -5z"/>
<path d="M1726 918 c170 -176 186 -211 192 -420 2 -83 8 -145 13 -142 15 9 10
253 -5 312 -8 30 -30 79 -48 109 -34 56 -198 223 -219 223 -7 0 23 -37 67 -82z"/>
</g>
</svg>
