<?xml version="1.0" standalone="no"?>
<!DOCTYPE svg PUBLIC "-//W3C//DTD SVG 20010904//EN"
 "http://www.w3.org/TR/2001/REC-SVG-20010904/DTD/svg10.dtd">
<svg version="1.0" xmlns="http://www.w3.org/2000/svg"
 width="200.000000pt" height="166.000000pt" viewBox="0 0 200.000000 166.000000"
 preserveAspectRatio="xMidYMid meet">

<g transform="translate(0.000000,166.000000) scale(0.100000,-0.100000)"
fill="#000000" stroke="none">
<path d="M996 1372 c-10 -88 -40 -199 -79 -296 l-34 -83 34 -28 c19 -15 47
-47 62 -70 l27 -43 22 39 c12 21 39 53 61 71 l39 32 -22 51 c-40 88 -68 186
-86 289 l-17 101 -7 -63z"/>
<path d="M835 905 c-40 -39 -31 -72 27 -108 29 -18 53 -14 62 10 13 33 -36 57
-62 31 -17 -17 -35 3 -30 32 8 58 81 50 111 -12 21 -44 16 -92 -17 -141 -42
-61 -126 -99 -140 -62 -7 19 -66 45 -102 45 -47 0 -110 -45 -136 -97 -19 -40
-23 -61 -21 -132 3 -101 -16 -154 -71 -196 -60 -46 -143 -30 -167 32 -26 69
58 136 105 84 15 -16 15 -19 1 -24 -29 -12 -11 -67 22 -67 7 0 17 9 23 20 8
15 7 26 -7 47 -25 41 -43 53 -80 53 -65 0 -102 -68 -72 -133 22 -48 101 -72
152 -46 39 20 86 72 98 106 13 41 20 41 42 3 17 -29 17 -30 -10 -71 -37 -57
-39 -138 -4 -188 29 -40 108 -79 177 -86 l49 -5 -61 19 c-134 41 -174 77 -174
159 0 67 36 120 105 155 112 56 262 4 253 -87 -2 -23 -9 -32 -28 -36 -35 -8
-36 -53 -1 -58 32 -5 38 4 46 70 7 56 7 57 -33 100 l-41 43 -88 0 c-64 0 -97
-5 -120 -17 -31 -18 -31 -18 -57 12 -69 83 -58 225 23 293 46 38 117 38 155 0
22 -22 26 -34 24 -66 -5 -71 -88 -103 -118 -47 -10 19 -9 20 13 15 27 -7 50
14 45 42 -5 27 -43 28 -62 1 -55 -78 54 -139 121 -68 15 16 37 30 48 30 55 0
124 -82 108 -127 -19 -53 -74 -70 -108 -33 -22 24 -13 50 19 50 13 0 27 7 30
16 9 22 -13 46 -38 42 -16 -2 -23 -14 -30 -52 -9 -46 -8 -50 18 -72 36 -32 61
-30 97 5 60 60 20 154 -76 181 -56 16 -61 43 -12 59 39 13 101 74 116 114 28
73 2 158 -52 177 -41 14 -45 13 -72 -15z"/>
<path d="M1104 920 c-58 -23 -81 -109 -50 -183 15 -38 77 -95 118 -109 44 -16
37 -43 -16 -57 -95 -24 -137 -122 -77 -182 36 -35 61 -37 97 -6 25 21 26 27
20 71 -5 29 -14 50 -23 53 -17 7 -45 -7 -50 -24 -6 -16 26 -43 42 -37 23 9 30
-24 10 -46 -34 -37 -89 -20 -108 33 -16 45 53 127 108 127 11 0 33 -14 48 -30
67 -71 176 -10 121 68 -19 27 -57 26 -62 -1 -5 -28 18 -49 45 -42 22 5 23 4
13 -15 -28 -53 -112 -24 -118 40 -7 64 33 100 108 100 125 0 187 -209 94 -320
-26 -30 -26 -30 -57 -12 -48 26 -192 24 -229 -3 -47 -35 -61 -73 -52 -135 9
-52 11 -55 39 -55 25 0 30 4 30 25 0 18 -7 26 -25 30 -19 4 -26 13 -28 36 -7
68 88 124 182 108 106 -17 176 -87 176 -174 0 -82 -43 -122 -175 -161 -46 -13
-53 -18 -30 -18 63 -1 163 45 195 89 40 57 35 149 -11 199 -22 23 -22 24 -4
57 21 40 31 42 40 12 21 -67 96 -128 159 -128 53 0 106 52 106 104 0 64 -63
104 -125 80 -9 -4 -24 -23 -35 -44 -17 -33 -17 -40 -5 -56 11 -15 17 -17 32
-8 24 15 29 45 9 59 -14 11 -14 14 3 29 28 26 77 13 96 -25 47 -90 -82 -162
-166 -92 -51 43 -69 95 -66 194 2 71 -2 92 -21 132 -28 55 -89 97 -143 97 -35
0 -99 -32 -99 -50 0 -15 -37 -12 -69 5 -92 47 -128 184 -63 235 44 35 92 21
92 -26 0 -27 -17 -41 -33 -25 -25 25 -74 0 -61 -32 9 -24 33 -28 62 -10 58 36
67 69 27 108 -26 26 -37 29 -71 15z"/>
<path d="M992 365 c-14 -98 -53 -227 -89 -298 -13 -26 -21 -52 -18 -57 8 -13
232 -13 240 0 3 5 -5 31 -18 57 -37 74 -68 177 -86 285 l-17 98 -12 -85z"/>
<path d="M89 197 c-65 -43 -68 -121 -7 -172 53 -45 148 -27 148 28 0 18 -50
57 -73 57 -25 0 -42 -27 -27 -45 14 -17 46 -20 55 -5 10 17 25 11 25 -10 0
-51 -98 -46 -140 8 -29 36 -21 88 16 121 39 33 112 26 154 -14 44 -42 74 -109
61 -134 -14 -25 -14 -31 -1 -31 6 0 10 6 10 13 0 19 41 55 77 68 41 14 81 -4
103 -46 20 -40 19 -39 26 -33 10 10 -24 76 -44 87 -29 16 -95 14 -118 -4 -27
-21 -31 -19 -53 23 -34 66 -97 112 -155 112 -13 0 -38 -10 -57 -23z"/>
<path d="M1810 209 c-35 -14 -79 -58 -101 -102 -22 -41 -26 -43 -53 -22 -25
19 -79 19 -115 0 -26 -13 -58 -71 -46 -83 6 -6 5 -7 25 33 22 42 62 60 103 46
36 -13 77 -49 77 -68 0 -7 5 -13 10 -13 13 0 13 6 -1 31 -14 27 20 97 67 139
67 59 167 31 180 -50 4 -26 1 -42 -16 -62 -42 -54 -140 -59 -140 -8 0 21 15
27 25 10 17 -28 71 3 59 34 -8 22 -40 20 -75 -5 -54 -38 -25 -89 50 -89 36 0
49 6 77 34 27 27 34 42 34 73 0 82 -80 133 -160 102z"/>
</g>
</svg>
